<?xml version="1.0" encoding="iso-8859-1"?>
<!-- Generator: Adobe Illustrator 21.0.0, SVG Export Plug-In . SVG Version: 6.00 Build 0)  -->
<svg  xmlns="http://www.w3.org/2000/svg" xmlns:xlink="http://www.w3.org/1999/xlink" version="1.1" id="Capa_1" x="0px" y="0px" viewBox="0 0 511.987 511.987" style="enable-background:new 0 0 511.987 511.987;" fill="#3362d2" xml:space="preserve" width="512" height="512">
<g>
	<path d="M322.491,394.5h45.253c20.729,0,37.593-16.864,37.593-37.593l0.123-112.161c0.009-16.995-8.134-32.1-21.534-41.263   c-0.286-1.136-30.518-58.949-30.518-58.949c-8.903-16.928-25.497-27.034-44.388-27.034H189.886   c-18.877,0-35.465,10.096-44.373,27.006c-4.82,9.152-31.294,59.5-31.294,59.5c-13.619,9.167-21.73,24.23-21.738,41.386   L92.46,356.907c0,20.729,16.864,37.593,37.593,37.593h45.252c20.729,0,37.593-16.864,37.593-37.593v-22.621h72v22.621   C284.898,377.636,301.763,394.5,322.491,394.5z M375.337,356.907c0,4.116-3.477,7.593-7.593,7.593h-45.253   c-4.116,0-7.593-3.477-7.593-7.593v-22.621h40.315c7.154,0,13.958-1.513,20.124-4.218V356.907z M172.056,158.486   c3.732-7.084,10.064-10.986,17.83-10.986h119.133c7.771,0,14.106,3.906,17.836,10.998c0,0,15.859,30.163,16.579,31.531   c-38.569-7.571-84.747-9.386-94.445-9.386c-34.135,0-66.873,3.209-93.282,8.911C155.707,189.555,167.239,167.632,172.056,158.486z    M182.899,356.907c0,4.116-3.477,7.593-7.593,7.593h-45.252c-4.116,0-7.593-3.477-7.593-7.593v-26.873   c6.296,2.778,13.149,4.252,20.226,4.252h40.213V356.907z M142.686,304.286c-5.383,0-10.459-2.109-14.293-5.94   c-3.828-3.825-5.935-8.884-5.932-14.245l0.021-38.692c0.004-8.564,4.762-15.57,12.727-18.74   c25.214-10.034,67.749-16.024,113.781-16.024c17.826,0,80.221,3.704,112.897,15.048c8.377,2.907,13.579,10.203,13.574,19.039   l-0.123,41.382c-1.006,10.186-9.647,18.174-20.124,18.174H142.686z"/>
	<path d="M167.899,244.286c-8.262,0-15,6.738-15,15c0,8.262,6.738,15,15,15s15-6.739,15-15   C182.899,251.024,176.161,244.286,167.899,244.286z"/>
	<path d="M329.899,244.286c-8.262,0-15,6.738-15,15c0,8.262,6.738,15,15,15c8.262,0,15-6.739,15-15   C344.899,251.024,338.16,244.286,329.899,244.286z"/>
	<path d="M269.897,244.286h-41.999c-8.284,0-15,6.716-15,15s6.716,15,15,15h41.999c8.284,0,15-6.716,15-15   S278.181,244.286,269.897,244.286z"/>
	<path d="M34.26,201.616c1.931,0,3.895-0.376,5.788-1.168l47.232-19.779c7.641-3.2,11.242-11.988,8.042-19.63   c-3.201-7.643-11.989-11.24-19.63-8.042l-13.442,5.629C96.273,81.031,173.36,30,259.138,30c98.02,0,183.615,66.278,208.153,161.176   c1.749,6.762,7.838,11.249,14.512,11.249c1.243,0,2.506-0.156,3.766-0.481c8.02-2.074,12.841-10.257,10.767-18.277   C468.374,75.526,370.835,0,259.138,0C160.899,0,72.671,58.742,34.203,147.914l-5.064-12c-3.221-7.632-12.019-11.207-19.652-7.987   c-7.632,3.221-11.208,12.019-7.988,19.651l18.934,44.866C22.851,198.172,28.409,201.616,34.26,201.616z"/>
	<path d="M510.488,364.409l-18.934-44.866c-2.417-5.728-7.975-9.172-13.826-9.172c-1.931,0-3.895,0.376-5.788,1.168l-47.232,19.779   c-7.641,3.2-11.242,11.988-8.042,19.63c3.201,7.643,11.989,11.24,19.63,8.042l13.442-5.629   c-34.023,77.595-111.11,128.626-196.888,128.626c-98.02,0-183.615-66.278-208.153-161.176c-1.749-6.762-7.838-11.249-14.512-11.249   c-1.243,0-2.506,0.156-3.766,0.481c-8.02,2.074-12.841,10.257-10.767,18.277c27.962,108.14,125.501,183.666,237.198,183.666   c98.239,0,186.467-58.742,224.935-147.914l5.064,12c3.221,7.632,12.019,11.207,19.652,7.987   C510.132,380.84,513.708,372.042,510.488,364.409z"/>
</g>















</svg>
