<svg xmlns="http://www.w3.org/2000/svg" xmlns:xlink="http://www.w3.org/1999/xlink" viewBox="0 0 331.86 101.38"><defs><style>.cls-1{fill:#4264af;}.cls-2{fill:url(#radial-gradient);}.cls-3{fill:url(#linear-gradient);}.cls-4{fill:url(#linear-gradient-2);}.cls-5{fill:url(#linear-gradient-3);}.cls-6{fill:url(#linear-gradient-4);}.cls-7{fill:url(#linear-gradient-5);}.cls-8{fill:url(#linear-gradient-6);}.cls-9{fill:url(#linear-gradient-7);}.cls-10{fill:url(#linear-gradient-8);}.cls-11,.cls-13{opacity:0.5;}.cls-11{fill:url(#radial-gradient-2);}.cls-12{fill:url(#radial-gradient-3);}.cls-13{fill:url(#radial-gradient-4);}.cls-14{fill:url(#radial-gradient-5);}.cls-15{fill:url(#radial-gradient-6);}</style><radialGradient id="radial-gradient" cx="273.78" cy="75.3" r="9.46" gradientUnits="userSpaceOnUse"><stop offset="0" stop-color="#808285"/><stop offset="0.05" stop-color="#7a7c7f"/><stop offset="0.11" stop-color="#696a6c"/><stop offset="0.19" stop-color="#4e4d4e"/><stop offset="0.28" stop-color="#282425"/><stop offset="0.29" stop-color="#231f20"/><stop offset="0.5" stop-color="#363335"/><stop offset="0.95" stop-color="#67676a"/><stop offset="1" stop-color="#6d6e71"/></radialGradient><linearGradient id="linear-gradient" x1="71.96" y1="-24.07" x2="68.39" y2="118.82" gradientUnits="userSpaceOnUse"><stop offset="0" stop-color="#27aae1"/><stop offset="1" stop-color="#4264af"/></linearGradient><linearGradient id="linear-gradient-2" x1="22.77" y1="-25.3" x2="19.19" y2="117.59" xlink:href="#linear-gradient"/><linearGradient id="linear-gradient-3" x1="160.66" y1="-21.85" x2="157.09" y2="121.04" xlink:href="#linear-gradient"/><linearGradient id="linear-gradient-4" x1="313.73" y1="-18.03" x2="310.16" y2="124.87" xlink:href="#linear-gradient"/><linearGradient id="linear-gradient-5" x1="182.3" y1="-21.31" x2="178.73" y2="121.58" xlink:href="#linear-gradient"/><linearGradient id="linear-gradient-6" x1="111.57" y1="-23.08" x2="108" y2="119.81" xlink:href="#linear-gradient"/><linearGradient id="linear-gradient-7" x1="323.34" y1="-17.79" x2="319.76" y2="125.11" xlink:href="#linear-gradient"/><linearGradient id="linear-gradient-8" x1="196.4" y1="-20.96" x2="192.83" y2="121.93" xlink:href="#linear-gradient"/><radialGradient id="radial-gradient-2" cx="273.87" cy="75.83" r="39.22" gradientUnits="userSpaceOnUse"><stop offset="0" stop-color="#4d4d4f"/><stop offset="0.26" stop-color="#363335"/><stop offset="0.51" stop-color="#231f20"/><stop offset="0.68" stop-color="#373536"/><stop offset="0.87" stop-color="#474749"/><stop offset="1" stop-color="#4d4d4f"/></radialGradient><radialGradient id="radial-gradient-3" cx="273.87" cy="75.83" r="35.86" gradientUnits="userSpaceOnUse"><stop offset="0" stop-color="#808285"/><stop offset="0.08" stop-color="#7a7c7f"/><stop offset="0.2" stop-color="#696a6c"/><stop offset="0.33" stop-color="#4e4d4e"/><stop offset="0.48" stop-color="#282425"/><stop offset="0.49" stop-color="#231f20"/><stop offset="0.65" stop-color="#363335"/><stop offset="0.96" stop-color="#67676a"/><stop offset="1" stop-color="#6d6e71"/></radialGradient><radialGradient id="radial-gradient-4" cx="73.89" cy="75.83" r="39.23" xlink:href="#radial-gradient-2"/><radialGradient id="radial-gradient-5" cx="73.89" cy="75.83" r="35.86" xlink:href="#radial-gradient-3"/><radialGradient id="radial-gradient-6" cx="73.89" cy="75.17" r="9.46" xlink:href="#radial-gradient"/></defs><title>Asset 3</title><g id="Layer_2" data-name="Layer 2"><g id="Layer_1-2" data-name="Layer 1"><path class="cls-1" d="M273.87,84.47a8.64,8.64,0,1,1,8.64-8.64A8.65,8.65,0,0,1,273.87,84.47Zm0-16.15a7.52,7.52,0,1,0,7.52,7.51A7.52,7.52,0,0,0,273.87,68.32Z"/><path class="cls-1" d="M273.8,77.76a1.82,1.82,0,1,1,1.82-1.82A1.81,1.81,0,0,1,273.8,77.76Zm0-3.08a1.27,1.27,0,1,0,1.26,1.26A1.27,1.27,0,0,0,273.8,74.68Z"/><path class="cls-2" d="M270,82l.54-4.82L266.84,74l4.75-1,1.89-4.47,2.4,4.22,4.83.41-3.27,3.59,1.1,4.72-4.42-2ZM269,74.59l2.53,2.2-.38,3.33,2.87-1.73,3.06,1.38-.76-3.26L278.61,74l-3.34-.29-1.66-2.92-1.3,3.09Z"/><path class="cls-3" d="M46.24,75.41A27.5,27.5,0,0,1,97,60.79a28.77,28.77,0,1,0-32.31,40.59A27.51,27.51,0,0,1,46.24,75.41Z"/><path class="cls-1" d="M14.28,36S3.22,39.76,1.7,53.87s0-28.59,0-28.59S2.84,28.33,14.28,36Z"/><path class="cls-4" d="M6.76,59.4S.13,91.79,40.45,90.09c0,0-43.08,12.15-40.32-30.69Z"/><path class="cls-5" d="M314.28,42.81s-17.53-9.91-90.34-8.38c0,0-22.87-21.73-65.95-27.07,0,0-41.24-3.38-96.06,14.87,0,0-16.82,6.13-43.08,11.81,0,0-13-8.38-14.48-13.72,0,0,13.62,5,45-2.67,0,0,72.85-26.61,126.94-14.48,0,0,32,6.48,52.22,22.11C228.51,25.28,286.07,24.13,314.28,42.81Z"/><path class="cls-6" d="M326.1,59.33s-3.05-7.24-22.11-8c0,0-.56-2.22-6.1-7.62C297.89,43.71,317,39.51,326.1,59.33Z"/><path class="cls-7" d="M148.08,36.33h65.57s-28.21-24-54.33-22.87c0,0,28.79,5.72,36.41,17.53Z"/><path class="cls-8" d="M139.69,36.33V16.51S102.33,15,78.32,25.28c0,0,18.3-14.11,64.42-13.73Z"/><path class="cls-9" d="M326.1,63s-21.3,20.33,5.76,28.65c0,0-17.53.07-22.49,0C309.37,91.68,308.56,64.94,326.1,63Z"/><path class="cls-10" d="M251.6,52.21h0c-51.84-23-92.68,20.39-159.43-9.4,0,0,39.23,58.57,137.31,27.24,0,0-43,29.81-116.54,2.93,0,0,78.09,42.59,135.64,18.25h0a28.84,28.84,0,0,0,16.11,10.15A27.49,27.49,0,1,1,297,60.79,28.78,28.78,0,0,0,251.6,52.21Z"/><path class="cls-11" d="M273.87,51.81a24,24,0,1,0,24,24A24,24,0,0,0,273.87,51.81Zm0,40.46a16.44,16.44,0,1,1,16.44-16.44A16.45,16.45,0,0,1,273.87,92.27Zm11.87-32.34A21.2,21.2,0,0,0,277,55.61a19.59,19.59,0,0,1,17.91,17.31L293,73A18.87,18.87,0,0,0,285.74,59.93Z"/><path class="cls-12" d="M273.87,51.81a24,24,0,1,0,24,24A24,24,0,0,0,273.87,51.81Zm0,40.46a16.44,16.44,0,1,1,16.44-16.44A16.45,16.45,0,0,1,273.87,92.27Zm11.87-32.34A21.2,21.2,0,0,0,277,55.61a19.59,19.59,0,0,1,17.91,17.31L293,73A18.87,18.87,0,0,0,285.74,59.93Z"/><path class="cls-13" d="M73.89,51.81a24,24,0,1,0,24,24A24,24,0,0,0,73.89,51.81Zm0,40.46A16.44,16.44,0,1,1,90.33,75.83,16.45,16.45,0,0,1,73.89,92.27ZM85.76,59.93A21.2,21.2,0,0,0,77,55.61,19.58,19.58,0,0,1,94.88,72.92L93,73A18.87,18.87,0,0,0,85.76,59.93Z"/><path class="cls-14" d="M73.89,51.81a24,24,0,1,0,24,24A24,24,0,0,0,73.89,51.81Zm0,40.46A16.44,16.44,0,1,1,90.33,75.83,16.45,16.45,0,0,1,73.89,92.27ZM85.76,59.93A21.2,21.2,0,0,0,77,55.61,19.58,19.58,0,0,1,94.88,72.92L93,73A18.87,18.87,0,0,0,85.76,59.93Z"/><path class="cls-1" d="M74,84.34a8.64,8.64,0,1,1,8.64-8.64A8.66,8.66,0,0,1,74,84.34Zm0-16.16A7.52,7.52,0,1,0,81.5,75.7,7.53,7.53,0,0,0,74,68.18Z"/><path class="cls-1" d="M73.91,77.63a1.82,1.82,0,1,1,1.82-1.82A1.82,1.82,0,0,1,73.91,77.63Zm0-3.08a1.26,1.26,0,1,0,1.26,1.26A1.25,1.25,0,0,0,73.91,74.55Z"/><path class="cls-15" d="M70.08,81.89l.54-4.82L67,73.89l4.75-1,1.9-4.47L76,72.66l4.84.42-3.28,3.58,1.1,4.73-4.42-2Zm-.94-7.43,2.53,2.2L71.3,80l2.87-1.73,3,1.38-.76-3.26,2.26-2.48-3.34-.29L73.73,70.7l-1.31,3.09Z"/></g></g></svg>