<svg style="fill: #3362d2;" id="Capa_1" enable-background="new 0 0 512 512" height="512" viewBox="0 0 512 512" width="512" xmlns="http://www.w3.org/2000/svg"><g><path d="m256 256.175c12.681 0 22.997-10.316 22.997-22.997s-10.316-22.997-22.997-22.997-22.997 10.316-22.997 22.997 10.316 22.997 22.997 22.997zm0-30.994c4.409 0 7.997 3.587 7.997 7.997s-3.588 7.997-7.997 7.997-7.997-3.587-7.997-7.997 3.588-7.997 7.997-7.997z"/><path d="m511.583 422.038-47.048-135.525c-1.115-3.216-3.417-5.804-6.479-7.288-1.904-.923-3.961-1.349-6.018-1.272l-6.521-22.844 24.584-49.672c12.557-25.372 2.912-55.845-21.958-69.375l-3.278-1.783-18.265-16.887c-5.994-5.539-14.334-7.807-22.315-6.068-5.196 1.133-9.816 3.883-13.274 7.721-32.431-41.373-82.057-65.754-135.011-65.754-13.227 0-26.392 1.51-39.127 4.487-4.034.943-6.539 4.977-5.596 9.011.942 4.033 4.982 6.537 9.01 5.596 11.617-2.716 23.633-4.093 35.713-4.093 50.591 0 97.859 24.386 127.272 65.427l-9.414 22.004-4.018-7.462c-1.054-1.954-2.554-3.519-4.305-4.645-25.652-34.577-66.456-55.175-109.535-55.175-43.08 0-83.884 20.599-109.537 55.176-1.751 1.127-3.251 2.693-4.306 4.648l-4.015 7.456-9.407-21.986c15.45-21.58 36.151-38.943 60.116-50.342 3.74-1.779 5.33-6.254 3.551-9.995-1.778-3.741-6.255-5.33-9.994-3.551-24.019 11.425-45.052 28.312-61.42 49.203-3.464-3.849-8.081-6.595-13.271-7.727-7.977-1.739-16.32.529-22.317 6.07l-18.264 16.885-3.278 1.784c-24.87 13.53-34.514 44.003-21.958 69.374l24.584 49.672-6.521 22.844c-2.056-.077-4.113.349-6.018 1.272-3.062 1.484-5.364 4.072-6.479 7.288l-47.049 135.526c-1.358 3.913.712 8.186 4.625 9.544 3.915 1.362 8.186-.713 9.545-4.625l46.308-133.393 62.766 21.79-46.306 133.394c-1.358 3.913.712 8.186 4.625 9.545.814.283 1.645.417 2.46.417 3.105 0 6.01-1.944 7.085-5.042l38.906-112.074c32.409 34.91 77.466 54.696 125.569 54.696 23.688 0 46.629-4.74 68.184-14.089 3.8-1.648 5.545-6.065 3.896-9.865-1.648-3.8-6.067-5.544-9.865-3.896-19.66 8.527-40.592 12.85-62.215 12.85-46.599 0-90.072-20.342-119.926-55.951l2.499-7.198c1.936-5.578-.254-11.593-4.938-14.742l4.196-10.563c24.625 42.868 69.918 68.305 118.17 68.305 48.272 0 93.555-25.453 118.17-68.305l4.196 10.563c-4.684 3.15-6.874 9.165-4.938 14.743l2.493 7.182c-8.389 9.997-17.974 18.923-28.565 26.55-3.361 2.421-4.124 7.108-1.703 10.469 1.466 2.035 3.762 3.117 6.092 3.117 1.519 0 3.051-.459 4.377-1.415 9.21-6.633 17.721-14.169 25.442-22.467l38.911 112.089c1.075 3.099 3.979 5.042 7.085 5.042.815 0 1.646-.134 2.46-.417 3.913-1.359 5.983-5.632 4.625-9.545l-46.306-133.394 62.766-21.789 46.308 133.393c1.357 3.913 5.628 5.985 9.545 4.625 3.912-1.358 5.983-5.631 4.624-9.544zm-136.648-243.191c3.369-.166 6.286-2.197 7.61-5.297l17.815-41.64c1.278-3.062 3.873-5.224 7.118-5.931 3.243-.708 6.504.178 8.938 2.428l18.95 17.52c1.113 1.03 1.811 1.214 5.607 3.311 17.699 9.777 24.65 31.426 15.682 49.546l-25.87 52.27c-.827 1.671-1.002 3.592-.49 5.385l7.394 25.905-45.299 15.726-46.75-117.696c-3.096-7.803.157-16.665 7.567-20.615l4.497-2.397 9.132 16.96c1.624 2.957 4.727 4.694 8.099 4.525zm-203.809 30.16c7.163-2.358 14.646-4.405 22.399-6.128-3.496 7.494-4.805 15.926-3.594 24.264 3.517 24.225 3.347 24.23 4.2 27.86l-39.14-5.372zm41.184 51.259c-2.125-3.462-3.497-7.257-4.077-11.278l-3.455-23.981c-1.133-7.888 1.163-15.9 6.302-21.983 2.132-2.525 5.213-4.155 8.688-4.614 10.19-1.229 22.691-1.976 31.22-2.114 14.197-.229 28.463.572 41.244 2.114 3.476.459 6.557 2.089 8.69 4.615 5.137 6.082 7.434 14.093 6.301 21.98l-3.454 23.982c-.581 4.023-1.953 7.818-4.076 11.276-5.368 8.729-14.813 14.101-25.222 14.101h-36.941c-10.174-.001-19.719-5.152-25.22-14.098zm106.166-57.387c7.753 1.723 15.235 3.77 22.398 6.128l16.136 40.624-39.139 5.372c.3-1.276.555-2.566.744-3.876l3.455-23.985c1.198-8.339-.099-16.769-3.594-24.263zm-62.476-99.438c35.353 0 68.99 15.585 91.918 42.14l-1.766.942c-14.156 7.545-20.369 24.477-14.453 39.387l2.112 5.317c-10.561-2.887-21.643-5.187-33.136-6.84-17.5-2.508-35.737-3.512-53.986-2.989-12.541.362-24.841 1.481-35.366 2.99-11.491 1.653-22.573 3.953-33.134 6.84l2.113-5.319c5.916-14.908-.297-31.84-14.452-39.384l-1.767-.942c22.927-26.558 56.565-42.142 91.917-42.142zm-200.657 95.343c-8.968-18.119-2.016-39.768 15.683-49.545 3.802-2.101 4.495-2.282 5.607-3.312l18.948-17.518c2.436-2.251 5.692-3.139 8.94-2.43 3.245.708 5.84 2.869 7.144 5.991l17.789 41.576c1.325 3.103 4.242 5.134 7.611 5.3 3.358.169 6.475-1.568 8.129-4.582l9.101-16.904 4.498 2.398c7.409 3.949 10.662 12.812 7.566 20.613l-46.749 117.699-45.301-15.726 7.395-25.905c.512-1.793.337-3.714-.49-5.385zm89.856 75.499 4.089-10.295 52.313 7.18c3.18 4.343 7.044 8.011 11.408 10.886l12.767 60.28c-35.393-9.047-65.253-33.732-80.577-68.051zm96.536 71.016-11.993-56.625c2.542.443 5.143.69 7.789.69h36.939c2.646 0 5.246-.246 7.789-.69l-11.993 56.625c-4.694.55-9.453.84-14.265.84s-9.572-.291-14.266-.84zm44.49-2.965 12.767-60.28c4.363-2.875 8.226-6.543 11.407-10.886l52.313-7.18 4.089 10.295c-15.324 34.319-45.184 59.004-80.576 68.051z"/></g></svg>