<?xml version="1.0" encoding="iso-8859-1"?><!-- Generator: Adobe Illustrator 19.0.0, SVG Export Plug-In . SVG Version: 6.00 Build 0)  --><svg version="1.1" id="Capa_1" xmlns="http://www.w3.org/2000/svg" xmlns:xlink="http://www.w3.org/1999/xlink" x="0px" y="0px"	 viewBox="0 0 512 512" style="enable-background:new 0 0 512 512;" xml:space="preserve"><path style="fill:#00D8DE;" d="M286.187,268.435L112.968,441.677c-6.875,6.876-18.021,6.876-24.897,0.001L45.214,398.82	c-6.874-6.874-6.875-18.02-0.001-24.894l117.914-117.939l-69.122-69.122l-48.79-48.79c-6.875-6.875-6.875-18.021,0-24.896	l42.857-42.857c6.875-6.875,18.021-6.875,24.896,0l116.543,116.543l56.675,56.675C293.06,250.414,293.061,261.56,286.187,268.435z"	/><path style="fill:#00A5FF;" d="M230.853,188.261L163.1,256.014l-25.897-25.897l-43.197-43.252l-48.79-48.79	c-6.875-6.875-6.875-18.021,0-24.896L88.07,70.325c6.876-6.876,18.025-6.875,24.899,0.003l91.987,92.035L230.853,188.261z"/><polygon style="fill:#0087FF;" points="230.853,188.261 163.1,256.014 146.67,239.557 214.422,171.804 "/><path style="fill:#00A5FF;" d="M466.786,268.435L293.568,441.677c-6.875,6.876-18.022,6.876-24.897,0.001l-42.858-42.858	c-6.874-6.874-6.875-18.02-0.001-24.894l117.914-117.939l-69.122-69.122l-48.79-48.79c-6.875-6.875-6.875-18.021,0-24.896	l42.857-42.857c6.875-6.875,18.021-6.875,24.896,0L410.11,186.865l56.675,56.675C473.66,250.414,473.66,261.56,466.786,268.435z"/><path style="fill:#00D8DE;" d="M411.452,188.261l-67.753,67.753l-25.897-25.897l-43.197-43.252l-48.79-48.79	c-6.875-6.875-6.875-18.021,0-24.896l42.854-42.854c6.876-6.876,18.025-6.875,24.899,0.003l91.987,92.035L411.452,188.261z"/><g></g><g></g><g></g><g></g><g></g><g></g><g></g><g></g><g></g><g></g><g></g><g></g><g></g><g></g><g></g></svg>